<?xml version="1.0" encoding="iso-8859-1"?>
<!-- Generator: Adobe Illustrator 19.0.0, SVG Export Plug-In . SVG Version: 6.00 Build 0)  -->
<svg version="1.1" id="Layer_1" xmlns="http://www.w3.org/2000/svg" xmlns:xlink="http://www.w3.org/1999/xlink" x="0px" y="0px"
	 viewBox="0 0 512 512" style="enable-background:new 0 0 512 512;" xml:space="preserve">
<path id="SVGCleanerId_0" style="fill:#FF675C;" d="M59.262,358.24c-20.98,0-38.033,16.807-38.433,37.69
	c-0.412,21.55,17.638,39.19,39.192,39.19h46.982c-21.554,0-39.604,17.64-39.192,39.19C68.211,495.193,85.264,512,106.244,512
	h397.748c4.423,0,8.008-3.586,8.008-8.008V212.488c0-4.423-3.586-8.008-8.008-8.008H400.951
	c-4.271-4.271-94.912-98.717-94.912-98.717c-18.348-18.348-48.095-18.348-66.443,0s-18.348,48.095,0,66.443l33.221,32.275H76.346
	h4.271c-20.98,0-38.033,16.807-38.433,37.69c-0.412,21.55,17.638,39.19,39.192,39.19H47.208c-21.554,0-39.604,17.64-39.192,39.19
	c0.399,20.884,17.453,37.69,38.433,37.69"/>
<g>
	<path id="SVGCleanerId_0_1_" style="fill:#FF675C;" d="M59.262,358.24c-20.98,0-38.033,16.807-38.433,37.69
		c-0.412,21.55,17.638,39.19,39.192,39.19h46.982c-21.554,0-39.604,17.64-39.192,39.19C68.211,495.193,85.264,512,106.244,512
		h397.748c4.423,0,8.008-3.586,8.008-8.008V212.488c0-4.423-3.586-8.008-8.008-8.008H400.951
		c-4.271-4.271-94.912-98.717-94.912-98.717c-18.348-18.348-48.095-18.348-66.443,0s-18.348,48.095,0,66.443l33.221,32.275H76.346
		h4.271c-20.98,0-38.033,16.807-38.433,37.69c-0.412,21.55,17.638,39.19,39.192,39.19H47.208c-21.554,0-39.604,17.64-39.192,39.19
		c0.399,20.884,17.453,37.69,38.433,37.69"/>
</g>
<g>
	<path style="fill:#DB3D5A;" d="M81.377,262.14c-18.007,0-33.558-12.315-37.953-28.931c-0.806,3.097-1.246,6.342-1.246,9.691
		c0,21.363,17.845,38.46,39.208,38.46h81.451v-12.642c0-3.633-2.945-6.578-6.578-6.578H81.377z"/>
	<path style="fill:#DB3D5A;" d="M46.448,339.02c-17.874,0-32.89-12.203-37.194-28.729c-0.866,3.274-1.307,6.711-1.24,10.258
		c0.4,20.884,17.454,37.69,38.434,37.69h116.388v-12.642c0-3.633-2.945-6.578-6.578-6.578H46.448z"/>
	<path style="fill:#DB3D5A;" d="M60.021,415.9c-18.009,0-33.562-12.317-37.954-28.937c-0.81,3.109-1.247,6.369-1.245,9.734
		c0.016,21.347,17.852,38.423,39.199,38.423h102.815v-12.643c0-3.633-2.945-6.578-6.578-6.578H60.021z"/>
	<path style="fill:#DB3D5A;" d="M69.115,463.597c-0.837,3.129-1.297,6.412-1.311,9.801C67.714,494.63,85.737,512,106.97,512h397.022
		c4.423,0,8.008-3.586,8.008-8.008v-11.919H106.244C88.461,492.073,73.506,479.994,69.115,463.597z"/>
</g>
<path style="fill:#FAEC8E;" d="M317.218,246.113c-1.519-1.692-3.686-2.66-5.96-2.66s-4.441,0.967-5.96,2.66
	c-6.768,7.541-66.115,74.755-66.115,112.126c0,39.743,32.332,72.075,72.075,72.075s72.075-32.332,72.075-72.075
	C383.333,320.869,323.986,253.654,317.218,246.113z"/>
<path style="fill:#FBC96C;" d="M331.011,410.561c-39.743,0-72.075-32.332-72.075-72.075c0-27.38,31.855-70.778,51.55-94.992
	c-1.988,0.192-3.843,1.119-5.189,2.619c-6.768,7.541-66.115,74.755-66.115,112.126c0,39.743,32.332,72.075,72.075,72.075
	c24.91,0,46.905-12.704,59.856-31.973C359.642,406.054,345.844,410.561,331.011,410.561z"/>
<g>
	<circle style="fill:#FFFFFF;" cx="331.545" cy="359.308" r="27.762"/>
	<circle style="fill:#FFFFFF;" cx="314.461" cy="299.512" r="14.949"/>
</g>
<g>
	<path style="fill:#5CC4E0;" d="M98.756,111.118c-5.436-0.722-19.138-3.75-28.921-16.222c-6.951-8.868-8.619-18.485-8.995-23.428
		c-0.316-4.176-3.797-7.402-7.985-7.402s-7.669,3.226-7.986,7.402c-0.376,4.943-2.044,14.56-8.994,23.427
		c-9.784,12.475-23.485,15.502-28.922,16.224C2.974,111.648,0,115.043,0,119.057c0,4.015,2.974,7.409,6.954,7.939
		c5.437,0.722,19.138,3.749,28.921,16.222c6.951,8.868,8.619,18.485,8.995,23.428c0.316,4.176,3.797,7.402,7.985,7.402
		s7.669-3.226,7.986-7.402c0.376-4.943,2.044-14.56,8.994-23.427c9.784-12.475,23.485-15.502,28.922-16.224
		c3.98-0.529,6.953-3.923,6.953-7.938C105.71,115.043,102.736,111.648,98.756,111.118z"/>
	<path style="fill:#5CC4E0;" d="M453.258,111.118c-5.437-0.722-19.138-3.749-28.921-16.222c-6.951-8.868-8.619-18.485-8.995-23.428
		c-0.316-4.176-3.797-7.402-7.985-7.402s-7.669,3.226-7.986,7.402c-0.376,4.943-2.044,14.56-8.995,23.428
		c-9.783,12.473-23.485,15.501-28.921,16.223c-3.981,0.529-6.954,3.923-6.954,7.939c0,4.016,2.974,7.409,6.954,7.939
		c5.437,0.722,19.138,3.749,28.921,16.222c6.951,8.868,8.619,18.485,8.995,23.428c0.317,4.176,3.798,7.402,7.986,7.402
		s7.669-3.226,7.986-7.402c0.376-4.943,2.044-14.56,8.994-23.427c9.784-12.475,23.485-15.502,28.922-16.224
		c3.981-0.529,6.954-3.923,6.954-7.939C460.214,115.041,457.239,111.648,453.258,111.118z"/>
	<path style="fill:#5CC4E0;" d="M252.516,47.052c-5.436-0.722-19.138-3.75-28.921-16.222c-6.951-8.868-8.619-18.485-8.995-23.428
		C214.284,3.226,210.803,0,206.615,0c-4.188,0-7.669,3.226-7.986,7.402c-0.376,4.943-2.044,14.56-8.994,23.427
		c-9.784,12.475-23.485,15.502-28.922,16.224c-3.98,0.529-6.953,3.923-6.953,7.938s2.974,7.409,6.954,7.939
		c5.437,0.722,19.138,3.749,28.921,16.222c6.951,8.868,8.619,18.485,8.995,23.428c0.317,4.176,3.798,7.402,7.986,7.402
		c4.188,0,7.669-3.226,7.986-7.402c0.376-4.943,2.044-14.56,8.994-23.427c9.784-12.475,23.485-15.502,28.922-16.224
		c3.979-0.529,6.952-3.923,6.952-7.938S256.497,47.581,252.516,47.052z"/>
</g>
<g>
</g>
<g>
</g>
<g>
</g>
<g>
</g>
<g>
</g>
<g>
</g>
<g>
</g>
<g>
</g>
<g>
</g>
<g>
</g>
<g>
</g>
<g>
</g>
<g>
</g>
<g>
</g>
<g>
</g>
</svg>
